<?xml version="1.0" encoding="utf-8"?>
<!-- Custom themed eye icon for NexLOCK Password Manager -->
<svg fill="#9ca3af" width="24px" height="24px" viewBox="-3.5 0 32 32" version="1.1" xmlns="http://www.w3.org/2000/svg">
<title>view</title>
<defs>
  <linearGradient id="eyeGradient" x1="0%" y1="0%" x2="100%" y2="100%">
    <stop offset="0%" style="stop-color:#9ca3af;stop-opacity:1" />
    <stop offset="100%" style="stop-color:#a855f7;stop-opacity:1" />
  </linearGradient>
</defs>
<path fill="url(#eyeGradient)" d="M12.406 13.844c1.188 0 2.156 0.969 2.156 2.156s-0.969 2.125-2.156 2.125-2.125-0.938-2.125-2.125 0.938-2.156 2.125-2.156zM12.406 8.531c7.063 0 12.156 6.625 12.156 6.625 0.344 0.438 0.344 1.219 0 1.656 0 0-5.094 6.625-12.156 6.625s-12.156-6.625-12.156-6.625c-0.344-0.438-0.344-1.219 0-1.656 0 0 5.094-6.625 12.156-6.625zM12.406 21.344c2.938 0 5.344-2.406 5.344-5.344s-2.406-5.344-5.344-5.344-5.344 2.406-5.344 5.344 2.406 5.344 5.344 5.344z"></path>
</svg>